<svg id="Capa_1" data-name="Capa 1" xmlns="http://www.w3.org/2000/svg" viewBox="0 0 264.2 131.4"><defs><style>.cls-1{fill:#0026e9;stroke:#000;stroke-miterlimit:10;}.cls-2{fill:#231f20;}</style></defs><title>logo</title><path class="cls-1" d="M546.63,179.08h-7.57c-6.72,0-13.42-.05-20.14.05a3.56,3.56,0,0,1-3.64-2.08c-1.35-2.51-2.91-4.91-4.41-7.35-5.64-9-11.26-18-16.93-27-4.26-6.8-8.6-13.57-12.89-20.34-4.49-7.1-9-14.17-13.47-21.24a14.93,14.93,0,0,0-1.65-1.83,15.79,15.79,0,0,0-1.3,1.65q-10.95,18.39-21.92,36.81c-4.56,7.67-9.2,15.3-13.84,22.92-3.36,5.54-6.75,11.11-10.23,16.6A3.82,3.82,0,0,1,416,179c-9.4.13-18.78,0.08-28.18,0.05a8.47,8.47,0,0,1-1.5-.28c1.3-1.86,2.53-3.41,3.56-5.12,2.93-4.89,5.74-9.9,8.68-14.79,5-8.43,10.16-16.83,15.25-25.2,4-6.64,8.1-13.24,12.14-19.88q6.81-11.17,13.62-22.39c4.21-6.95,8.4-13.89,12.66-20.81s8.65-13.92,13.26-21.31A25.38,25.38,0,0,1,467.77,52c3.11,5.14,6.09,10.33,9.23,15.45,4.86,8,9.8,16,14.72,23.92,4.09,6.62,8.2,13.19,12.29,19.78q6.7,10.79,13.39,21.61,6.32,10.23,12.69,20.44c4.36,7.07,8.7,14.12,13.11,21.16C544.09,175.82,545.2,177.14,546.63,179.08Z" transform="translate(-385.5 -48.23)"/><path class="cls-2" d="M646.7,78.27c2.58,7.17,3.84,14.57,2.38,22.07-1.91,9.83-5,19.33-12.21,26.63-4.51,4.54-9.38,8.85-15.57,11.16a16.33,16.33,0,0,0-2.31,1.23c8.15,13.16,16.25,26.23,24.6,39.74-1.43.05-2.36,0.15-3.31,0.15-7.95,0-15.95-.33-23.87.13-4.19.23-6.37-1.63-8.17-4.79-1.15-2-2.31-4-3.49-6q-10-16.93-20.06-33.88c-3.13-5.27-6.39-10.48-9.58-15.75-0.45-.73-0.78-1.53-1.4-2.73,9.13,0,17.73-.3,26.3.08,19.58,0.83,25.48-19.63,18.91-31.44-4.59-8.22-12.26-10.38-20.66-10.53C582.48,74,566.74,74.16,551,74.24a4.15,4.15,0,0,1-4.31-2.58c-3.59-6.77-7.4-13.44-11.08-20.16-0.43-.75-0.75-1.53-1.38-2.86h12.41c16.83,0,33.65-.15,50.48,0C611,48.76,623.68,52.4,634.79,61.2A36.66,36.66,0,0,1,646.7,78.27Z" transform="translate(-385.5 -48.23)"/><path class="cls-1" d="M599,178.8c-1.25.13-1.93,0.28-2.61,0.28-8.5,0-17,.08-25.5-0.08a4.38,4.38,0,0,1-3.06-1.86c-2.86-4.54-5.47-9.25-8.25-13.84-4.69-7.8-9.45-15.55-14.22-23.32q-5.87-9.55-11.79-19.13c-4.36-7-8.75-14.07-13.54-21.72-2.61,4.19-5,8.15-7.52,12.19a1.55,1.55,0,0,1-.6-0.33c-4.66-7.2-9.25-14.42-14-21.56a3.39,3.39,0,0,1,0-4.11c6.59-11.26,13.09-22.57,19.66-33.83a18.85,18.85,0,0,1,2-2.41c3.51,6,6.67,11.48,9.93,16.93L543.19,88.4q6.62,10.87,13.26,21.69t13.14,21.46c4.19,6.85,8.4,13.69,12.56,20.54,4.44,7.22,8.83,14.49,13.26,21.69C596.43,175.39,597.63,176.89,599,178.8Z" transform="translate(-385.5 -48.23)"/></svg>